<svg width="539.962" height="63.984" viewBox="0 0 539.962 63.984" xmlns="http://www.w3.org/2000/svg"><g id="svgGroup" stroke-linecap="round" fill-rule="evenodd" font-size="9pt" stroke="#d6d6d6" stroke-width="0.25mm" fill="#ffffff" style="stroke:#d6d6d6;stroke-width:0.25mm;fill:#ffffff"><path d="M 394.532 47.305 L 383.165 55 A 366.615 366.615 0 0 1 379.117 57.806 Q 372.173 62.544 369.873 63.502 A 3.951 3.951 0 0 1 369.259 63.711 A 9.706 9.706 0 0 1 366.973 63.984 Q 365.821 63.984 364.806 63.77 Q 363.79 63.555 363.009 63.047 Q 361.212 61.992 361.212 59.922 A 2.724 2.724 0 0 1 361.26 59.472 Q 361.442 58.434 362.306 55.938 L 365.665 46.719 A 117.589 117.589 0 0 0 366.196 45.174 Q 367.227 42.097 367.227 41.367 A 0.354 0.354 0 0 0 367.203 41.231 Q 367.139 41.078 366.91 41.058 A 0.842 0.842 0 0 0 366.837 41.055 Q 366.499 41.055 365.663 41.669 A 12.693 12.693 0 0 0 365.391 41.875 A 39.863 39.863 0 0 0 364.837 42.315 Q 363.972 43.012 362.87 43.969 A 99.584 99.584 0 0 0 362.852 43.984 L 353.556 52.109 L 348.673 56.172 A 49.202 49.202 0 0 1 345.096 58.787 Q 339.991 62.149 336.446 62.149 A 5.509 5.509 0 0 1 334.14 61.619 Q 333.051 61.121 331.954 60.156 A 7.523 7.523 0 0 1 330.372 58.32 A 6.189 6.189 0 0 1 329.493 55.078 A 36.195 36.195 0 0 1 329.662 51.668 A 47.567 47.567 0 0 1 330.059 48.594 A 45.535 45.535 0 0 1 331.681 41.816 A 35.906 35.906 0 0 1 334.298 35.684 A 25.388 25.388 0 0 1 336.419 32.392 A 21.284 21.284 0 0 1 337.852 30.703 A 15.139 15.139 0 0 1 341.869 27.573 A 12.952 12.952 0 0 1 347.989 26.094 Q 351.768 26.094 353.102 27.533 A 2.825 2.825 0 0 1 353.829 29.531 A 4.164 4.164 0 0 1 353.716 30.43 Q 353.506 31.367 352.906 32.685 A 27.19 27.19 0 0 1 352.227 34.063 Q 348.829 40.781 348.829 41.309 A 1.342 1.342 0 0 0 348.871 41.654 A 0.94 0.94 0 0 0 349.161 42.129 A 1.248 1.248 0 0 0 349.457 42.327 A 0.995 0.995 0 0 0 349.884 42.422 A 1.501 1.501 0 0 0 350.385 42.323 Q 351.089 42.07 352.133 41.175 A 14.67 14.67 0 0 0 352.227 41.094 Q 361.621 32.87 364.499 30.494 A 59.501 59.501 0 0 1 364.864 30.195 A 69.856 69.856 0 0 1 367.887 27.87 A 56.422 56.422 0 0 1 369.884 26.484 Q 375.431 22.852 378.712 22.852 A 13.9 13.9 0 0 1 380.445 22.953 Q 381.984 23.147 383.087 23.711 A 9.867 9.867 0 0 1 384.299 24.447 Q 385.62 25.397 385.925 26.484 A 2.447 2.447 0 0 1 386.016 27.149 A 16.535 16.535 0 0 1 385.916 28.921 Q 385.786 30.122 385.489 31.484 Q 384.962 33.906 384.337 36.172 L 383.165 40.156 Q 382.618 41.875 382.618 42.793 A 1.573 1.573 0 0 0 382.652 43.137 Q 382.761 43.621 383.217 43.697 A 1.108 1.108 0 0 0 383.399 43.711 Q 385.25 43.711 390.718 38.533 A 90.472 90.472 0 0 0 390.86 38.399 L 394.649 34.844 A 53.65 53.65 0 0 1 397.352 32.561 Q 401.452 29.342 403.988 29.02 A 4.324 4.324 0 0 1 404.532 28.984 A 3.825 3.825 0 0 1 407.061 29.937 A 5.165 5.165 0 0 1 407.384 30.234 A 12.965 12.965 0 0 1 408.341 31.294 Q 409.571 32.832 409.571 34.063 A 3.568 3.568 0 0 1 409.51 34.685 Q 409.396 35.323 409.07 36.174 A 14.705 14.705 0 0 1 408.946 36.484 A 29.052 29.052 0 0 0 408.433 37.817 Q 407.774 39.678 407.774 40.703 A 13.728 13.728 0 0 0 407.901 42.655 Q 408.234 44.961 409.445 45.864 A 3.127 3.127 0 0 0 411.368 46.445 A 4.864 4.864 0 0 0 412.792 46.189 Q 415.019 45.491 418.824 42.893 A 70.006 70.006 0 0 0 420.001 42.07 A 341.825 341.825 0 0 0 421.923 40.639 Q 425.745 37.771 426.602 36.914 A 9.587 9.587 0 0 1 428.589 35.608 A 7.038 7.038 0 0 1 431.681 34.883 A 2.704 2.704 0 0 1 433.614 35.645 A 2.397 2.397 0 0 1 434.239 36.669 Q 434.363 37.053 434.399 37.52 A 5.224 5.224 0 0 1 434.415 37.93 A 5.33 5.33 0 0 1 433.673 40.703 A 15.737 15.737 0 0 1 432.768 42.053 A 20.95 20.95 0 0 1 431.778 43.281 Q 430.894 44.301 429.687 45.504 A 65.662 65.662 0 0 1 428.927 46.25 A 60.758 60.758 0 0 1 427.105 47.935 A 80.226 80.226 0 0 1 425.04 49.707 Q 422.852 51.524 420.255 53.32 A 50.276 50.276 0 0 1 414.884 56.563 A 35.3 35.3 0 0 1 410.548 58.451 Q 408.22 59.273 406.086 59.581 A 17.428 17.428 0 0 1 403.595 59.766 Q 397.813 59.766 395.743 54.531 A 15.685 15.685 0 0 1 394.874 51.445 Q 394.532 49.546 394.532 47.305 Z M 226.759 53.75 L 222.227 57.109 Q 216.357 61.298 213.683 62.084 A 3.869 3.869 0 0 1 212.618 62.266 Q 209.923 62.266 207.618 60.234 A 4.581 4.581 0 0 1 207.073 59.668 A 3.424 3.424 0 0 1 206.641 58.984 Q 205.366 57.709 205.216 52.797 A 45.059 45.059 0 0 1 205.196 51.426 A 48.473 48.473 0 0 1 205.842 43.38 A 41.835 41.835 0 0 1 206.563 39.961 A 55.498 55.498 0 0 1 209.076 32.373 A 48.971 48.971 0 0 1 210.118 30.039 A 56.296 56.296 0 0 1 213.536 23.967 Q 216.491 19.36 220.782 14.258 A 34.644 34.644 0 0 1 230.743 4.649 A 31.107 31.107 0 0 1 233.426 3.119 Q 236.688 1.484 239.102 1.484 A 6.832 6.832 0 0 1 240.551 1.63 A 4.959 4.959 0 0 1 242.208 2.305 A 3.054 3.054 0 0 1 242.95 2.962 A 2.445 2.445 0 0 1 243.477 4.531 Q 243.477 5.641 242.796 6.921 A 9.189 9.189 0 0 1 242.384 7.617 A 6536.185 6536.185 0 0 0 237.946 14.099 Q 229.159 26.953 227.54 29.492 Q 225.548 32.617 224.727 34.297 A 166.773 166.773 0 0 0 224.344 35.087 Q 223.976 35.85 223.723 36.4 A 37.478 37.478 0 0 0 223.516 36.856 A 33.011 33.011 0 0 0 222.774 38.672 A 25.133 25.133 0 0 0 222.418 39.683 Q 221.959 41.086 221.954 41.82 A 2.366 2.366 0 0 0 221.954 41.836 A 0.82 0.82 0 0 0 222.41 42.618 Q 222.752 42.799 223.35 42.812 A 4.313 4.313 0 0 0 223.438 42.813 A 1.491 1.491 0 0 0 224.158 42.532 Q 225.957 41.404 230.587 35.742 L 235.821 29.258 A 22.485 22.485 0 0 1 237.973 26.895 Q 239.206 25.732 240.476 24.96 A 11.5 11.5 0 0 1 241.817 24.258 Q 244.923 22.891 247.227 22.891 A 20.189 20.189 0 0 1 249.403 22.997 Q 253.751 23.472 253.751 26.055 Q 253.751 28.901 249.431 34.044 A 50.179 50.179 0 0 1 249.415 34.063 A 13.721 13.721 0 0 1 249.151 34.36 Q 248.849 34.693 248.422 35.129 A 53.884 53.884 0 0 1 248.009 35.547 L 242.774 40.391 L 239.298 43.477 Q 242.014 46.655 244.666 48.444 A 16.053 16.053 0 0 0 246.524 49.531 A 5.496 5.496 0 0 0 247.012 49.737 Q 247.517 49.92 247.904 49.922 A 1.639 1.639 0 0 0 247.911 49.922 A 1.524 1.524 0 0 0 248.227 49.882 Q 248.825 49.753 249.962 49.199 A 29.761 29.761 0 0 0 251.332 48.485 Q 252.258 47.972 253.302 47.324 A 78.87 78.87 0 0 0 255.211 46.099 A 98.013 98.013 0 0 0 257.227 44.727 L 267.931 36.914 Q 269.196 35.93 270.461 35.831 A 3.626 3.626 0 0 1 270.743 35.82 A 5.177 5.177 0 0 1 271.831 35.924 Q 273.418 36.267 273.638 37.741 A 3.409 3.409 0 0 1 273.673 38.242 Q 273.673 41.406 270.587 45.625 A 24.344 24.344 0 0 1 269.781 46.644 Q 269.273 47.251 268.79 47.734 L 266.29 50 Q 259.338 56.459 253.247 60.059 A 39.077 39.077 0 0 1 247.306 62.969 A 16.122 16.122 0 0 1 245.124 63.663 Q 243.94 63.944 242.849 63.979 A 9.606 9.606 0 0 1 242.54 63.984 A 14.06 14.06 0 0 1 235.454 61.955 Q 231.07 59.427 226.759 53.75 Z M 72.071 44.297 L 69.845 46.563 Q 62.858 53.549 56.431 57.313 A 36.865 36.865 0 0 1 50.782 60.039 A 19.728 19.728 0 0 1 49.121 60.581 Q 44.856 61.754 42.813 59.844 A 8.548 8.548 0 0 1 41.441 58.09 Q 40.392 56.355 39.661 53.714 A 27.539 27.539 0 0 1 39.649 53.672 L 38.712 50.274 L 30.391 55.391 L 25.587 58.125 A 73.408 73.408 0 0 1 21.588 60.162 Q 17.748 61.96 15.026 62.538 A 11.316 11.316 0 0 1 12.696 62.813 A 11.527 11.527 0 0 1 4.101 59.194 A 14.548 14.548 0 0 1 3.516 58.555 A 13.757 13.757 0 0 1 0.001 49.219 A 12.314 12.314 0 0 1 2.976 41.192 A 16.87 16.87 0 0 1 4.181 39.883 A 33.068 33.068 0 0 1 9.106 35.97 Q 14.414 32.46 22.514 29.345 A 111.471 111.471 0 0 1 23.048 29.141 Q 35.235 24.57 42.735 24.57 A 3.73 3.73 0 0 1 43.725 24.69 Q 44.857 25.002 45.162 26.128 A 3.608 3.608 0 0 1 45.274 27.07 Q 45.274 28.789 44.61 29.649 A 3.107 3.107 0 0 1 44.109 30.149 Q 43.541 30.61 42.577 31.083 A 16.554 16.554 0 0 1 41.876 31.406 L 36.954 33.516 A 87.861 87.861 0 0 0 30.726 36.388 Q 24.937 39.359 21.51 42.472 A 24.183 24.183 0 0 0 20.938 43.008 A 6.676 6.676 0 0 0 20.24 43.771 Q 19.913 44.194 19.729 44.609 A 2.593 2.593 0 0 0 19.493 45.664 A 1.073 1.073 0 0 0 20.112 46.689 Q 20.574 46.927 21.379 46.951 A 6.207 6.207 0 0 0 21.563 46.953 Q 23.2 46.953 28.337 44.112 A 112.863 112.863 0 0 0 31.016 42.578 L 34.259 40.664 A 47.526 47.526 0 0 1 38.305 38.474 Q 42.541 36.459 45.835 36.178 A 12.268 12.268 0 0 1 46.876 36.133 Q 50.928 36.133 52.409 39.503 A 7.692 7.692 0 0 1 52.579 39.922 A 53.812 53.812 0 0 1 53.243 41.973 A 32.533 32.533 0 0 0 53.556 42.954 A 23.808 23.808 0 0 0 53.868 43.828 Q 54.402 45.281 54.856 45.631 A 0.464 0.464 0 0 0 55.138 45.742 A 1.634 1.634 0 0 0 55.495 45.697 Q 55.862 45.614 56.363 45.377 A 8.961 8.961 0 0 0 56.759 45.176 A 19.761 19.761 0 0 0 57.723 44.62 Q 58.369 44.225 59.083 43.731 A 60.349 60.349 0 0 0 60.875 42.439 A 71.281 71.281 0 0 0 61.72 41.797 L 66.446 38.008 Q 72.289 33.145 75.434 32.8 A 4.264 4.264 0 0 1 75.899 32.774 Q 77.149 32.774 77.149 34.883 Q 77.149 38.516 72.071 44.297 Z M 490.587 44.297 L 488.36 46.563 Q 481.374 53.549 474.946 57.313 A 36.865 36.865 0 0 1 469.298 60.039 A 19.728 19.728 0 0 1 467.636 60.581 Q 463.371 61.754 461.329 59.844 A 8.548 8.548 0 0 1 459.957 58.09 Q 458.908 56.355 458.176 53.714 A 27.539 27.539 0 0 1 458.165 53.672 L 457.227 50.274 L 448.907 55.391 L 444.102 58.125 A 73.408 73.408 0 0 1 440.103 60.162 Q 436.264 61.96 433.542 62.538 A 11.316 11.316 0 0 1 431.212 62.813 A 11.527 11.527 0 0 1 422.617 59.194 A 14.548 14.548 0 0 1 422.032 58.555 A 13.757 13.757 0 0 1 418.516 49.219 A 12.314 12.314 0 0 1 421.492 41.192 A 16.87 16.87 0 0 1 422.696 39.883 A 33.068 33.068 0 0 1 427.622 35.97 Q 432.93 32.46 441.029 29.345 A 111.471 111.471 0 0 1 441.563 29.141 Q 453.751 24.57 461.251 24.57 A 3.73 3.73 0 0 1 462.24 24.69 Q 463.372 25.002 463.677 26.128 A 3.608 3.608 0 0 1 463.79 27.07 Q 463.79 28.789 463.126 29.649 A 3.107 3.107 0 0 1 462.624 30.149 Q 462.057 30.61 461.093 31.083 A 16.554 16.554 0 0 1 460.391 31.406 L 455.47 33.516 A 87.861 87.861 0 0 0 449.241 36.388 Q 443.452 39.359 440.025 42.472 A 24.183 24.183 0 0 0 439.454 43.008 A 6.676 6.676 0 0 0 438.755 43.771 Q 438.429 44.194 438.245 44.609 A 2.593 2.593 0 0 0 438.009 45.664 A 1.073 1.073 0 0 0 438.628 46.689 Q 439.089 46.927 439.894 46.951 A 6.207 6.207 0 0 0 440.079 46.953 Q 441.716 46.953 446.853 44.112 A 112.863 112.863 0 0 0 449.532 42.578 L 452.774 40.664 A 47.526 47.526 0 0 1 456.82 38.474 Q 461.057 36.459 464.351 36.178 A 12.268 12.268 0 0 1 465.391 36.133 Q 469.444 36.133 470.925 39.503 A 7.692 7.692 0 0 1 471.095 39.922 A 53.812 53.812 0 0 1 471.759 41.973 A 32.533 32.533 0 0 0 472.071 42.954 A 23.808 23.808 0 0 0 472.384 43.828 Q 472.917 45.281 473.372 45.631 A 0.464 0.464 0 0 0 473.653 45.742 A 1.634 1.634 0 0 0 474.01 45.697 Q 474.378 45.614 474.879 45.377 A 8.961 8.961 0 0 0 475.274 45.176 A 19.761 19.761 0 0 0 476.238 44.62 Q 476.884 44.225 477.598 43.731 A 60.349 60.349 0 0 0 479.39 42.439 A 71.281 71.281 0 0 0 480.235 41.797 L 484.962 38.008 Q 490.804 33.145 493.95 32.8 A 4.264 4.264 0 0 1 494.415 32.774 Q 495.665 32.774 495.665 34.883 Q 495.665 38.516 490.587 44.297 Z M 330.391 39.727 L 333.829 36.914 A 15.946 15.946 0 0 1 335.922 35.431 Q 337.128 34.725 338.292 34.394 A 7.366 7.366 0 0 1 340.313 34.102 A 3.273 3.273 0 0 1 340.824 34.138 Q 341.49 34.244 341.764 34.654 A 0.99 0.99 0 0 1 341.798 34.707 Q 342.114 35.251 342.146 36.047 A 4.552 4.552 0 0 1 342.149 36.231 A 5.639 5.639 0 0 1 342.006 37.469 A 6.975 6.975 0 0 1 341.817 38.145 A 12.081 12.081 0 0 1 341.363 39.296 A 15.532 15.532 0 0 1 340.899 40.234 A 29.06 29.06 0 0 1 340.022 41.797 Q 339.194 43.165 338.399 44.063 A 31.661 31.661 0 0 1 337.086 45.454 A 41.43 41.43 0 0 1 335.567 46.895 Q 334.174 48.153 332.334 49.672 A 142.206 142.206 0 0 1 331.72 50.176 A 79.944 79.944 0 0 1 328.753 52.477 A 98.038 98.038 0 0 1 326.798 53.887 A 68.84 68.84 0 0 1 321.368 57.344 A 40.627 40.627 0 0 1 318.069 59.081 Q 314.076 60.938 311.212 60.938 A 10.858 10.858 0 0 1 307.929 60.465 A 8.569 8.569 0 0 1 303.751 57.578 A 11.859 11.859 0 0 1 301.681 53.663 Q 301.165 52.046 300.971 50.123 A 22.29 22.29 0 0 1 300.899 49.219 A 60.706 60.706 0 0 1 292.73 56.298 A 49.252 49.252 0 0 1 286.016 60.352 A 31.486 31.486 0 0 1 283.158 61.608 Q 280.174 62.734 277.891 62.734 A 23.419 23.419 0 0 1 275.143 62.581 Q 273.686 62.409 272.427 62.042 A 13.908 13.908 0 0 1 272.071 61.934 A 12.756 12.756 0 0 1 268.421 60.104 A 11.954 11.954 0 0 1 267.696 59.531 Q 263.634 56.133 263.634 50.078 Q 263.634 41.406 269.845 33.359 A 24.843 24.843 0 0 1 274.22 28.984 A 20.999 20.999 0 0 1 282.2 25.942 A 20.243 20.243 0 0 1 285.313 25.703 A 6.496 6.496 0 0 1 286.68 25.837 Q 287.491 26.012 288.091 26.415 A 3.311 3.311 0 0 1 288.985 27.305 Q 289.415 27.93 289.415 28.926 Q 289.415 29.7 289.073 30.663 A 9.107 9.107 0 0 1 288.848 31.231 A 24.904 24.904 0 0 1 288.064 32.869 A 30.846 30.846 0 0 1 287.462 33.965 A 58.352 58.352 0 0 1 286.192 36.065 A 67.858 67.858 0 0 1 285.645 36.914 A 57.389 57.389 0 0 0 284.25 39.155 A 50.035 50.035 0 0 0 283.829 39.883 A 33.476 33.476 0 0 0 283.068 41.294 Q 281.965 43.473 281.883 44.641 A 2.593 2.593 0 0 0 281.876 44.824 Q 281.876 45.845 282.272 46.497 A 2.08 2.08 0 0 0 282.735 47.031 A 3.092 3.092 0 0 0 284.371 47.708 A 4.072 4.072 0 0 0 284.845 47.734 A 9.508 9.508 0 0 0 287.171 47.462 A 7.344 7.344 0 0 0 289.571 46.387 A 34.549 34.549 0 0 0 292.479 44.135 A 39.675 39.675 0 0 0 293.438 43.281 L 297.11 39.688 L 300.665 36.016 A 62.713 62.713 0 0 1 302.394 34.313 Q 304.932 31.917 306.427 31.191 Q 308.254 30.305 309.159 30.441 A 1.327 1.327 0 0 1 309.298 30.469 A 5.647 5.647 0 0 1 310.321 30.85 A 7.49 7.49 0 0 1 311.134 31.309 A 11.783 11.783 0 0 1 312.404 32.261 A 13.903 13.903 0 0 1 312.97 32.774 A 13.33 13.33 0 0 1 313.983 33.855 Q 314.969 35.043 315.24 36.082 A 3.27 3.27 0 0 1 315.313 36.445 A 6.594 6.594 0 0 1 315.328 36.743 Q 315.357 37.735 315.155 39.445 A 42.13 42.13 0 0 1 315.138 39.59 A 74.574 74.574 0 0 0 315.032 40.498 Q 314.91 41.623 314.888 42.227 A 6.611 6.611 0 0 0 314.884 42.461 A 6.517 6.517 0 0 0 315.038 43.95 Q 315.514 45.971 317.455 46.329 A 4.988 4.988 0 0 0 318.36 46.406 A 6.238 6.238 0 0 0 320.342 46.015 Q 323.909 44.789 330.391 39.727 Z M 126.563 37.813 L 127.618 36.914 A 20.916 20.916 0 0 1 129.215 35.942 Q 130.836 35.06 132.072 34.862 A 4.318 4.318 0 0 1 132.755 34.805 A 10.343 10.343 0 0 1 133.549 34.833 Q 134.843 34.933 135.255 35.391 A 1.748 1.748 0 0 1 135.586 35.956 Q 135.77 36.447 135.781 37.169 A 6.109 6.109 0 0 1 135.782 37.266 A 6.667 6.667 0 0 1 135.221 39.862 Q 134.804 40.852 134.078 41.88 A 16.422 16.422 0 0 1 132.852 43.399 Q 128.477 48.711 120.86 53.477 A 47.633 47.633 0 0 1 115.522 56.402 Q 112.596 57.754 109.9 58.408 A 20.583 20.583 0 0 1 105.04 59.024 A 6.517 6.517 0 0 1 102.402 58.519 Q 99.784 57.372 98.912 53.615 A 12.893 12.893 0 0 1 98.907 53.594 A 23.271 23.271 0 0 1 98.516 51.716 A 19.733 19.733 0 0 1 98.399 50.899 Q 98.032 47.963 97.631 47.475 A 0.378 0.378 0 0 0 97.579 47.422 A 0.662 0.662 0 0 0 97.337 47.301 Q 96.89 47.174 96.01 47.44 A 7.176 7.176 0 0 0 95.88 47.481 A 12.142 12.142 0 0 0 94.867 47.863 Q 93.962 48.248 92.872 48.848 Q 91.249 49.741 89.303 50.992 A 86.896 86.896 0 0 0 89.024 51.172 A 5489.112 5489.112 0 0 1 85.169 53.731 Q 77.537 58.792 76.173 59.649 Q 72.149 62.149 70.743 62.149 A 6.844 6.844 0 0 1 67.989 61.563 A 9.15 9.15 0 0 1 66.154 60.508 A 8.217 8.217 0 0 1 65.626 60.078 A 8.879 8.879 0 0 1 64.536 58.857 Q 63.516 57.455 63.516 56.016 A 45.9 45.9 0 0 1 64.766 45.084 A 36.642 36.642 0 0 1 68.673 35.313 A 24.537 24.537 0 0 1 71.597 31.204 Q 73.832 28.695 76.544 27.307 A 15.238 15.238 0 0 1 77.11 27.031 A 12.54 12.54 0 0 1 82.579 25.82 Q 87.931 25.82 87.931 29.336 Q 87.931 31.484 85.391 36.367 L 84.22 38.672 A 67.97 67.97 0 0 0 83.935 39.219 Q 83.007 41.028 83.007 41.346 A 0.169 0.169 0 0 0 83.009 41.367 Q 83.118 41.916 83.357 42.208 A 0.869 0.869 0 0 0 84.063 42.539 Q 84.934 42.539 86.61 41.293 A 17.366 17.366 0 0 0 86.72 41.211 L 93.907 35.859 L 97.501 33.359 Q 103.712 29.297 106.641 29.297 A 3.802 3.802 0 0 1 108.916 30.06 A 5.27 5.27 0 0 1 109.493 30.547 Q 111.876 32.813 111.876 34.492 A 7.725 7.725 0 0 1 111.862 34.935 Q 111.839 35.332 111.778 35.82 A 285.828 285.828 0 0 1 111.676 36.631 A 352.795 352.795 0 0 1 111.563 37.5 L 111.407 39.336 A 15.059 15.059 0 0 0 111.298 40.671 A 13.073 13.073 0 0 0 111.29 41.133 A 9.122 9.122 0 0 0 111.363 42.341 Q 111.678 44.688 113.36 44.688 A 10.318 10.318 0 0 0 116.738 44.049 Q 120.914 42.593 126.563 37.813 Z M 198.907 43.281 L 205.86 37.93 A 21.474 21.474 0 0 1 208.326 36.211 Q 209.661 35.424 210.919 35.005 A 8.71 8.71 0 0 1 213.673 34.531 Q 215.898 34.531 216.143 36.172 A 2.918 2.918 0 0 1 216.173 36.602 A 5.447 5.447 0 0 1 215.813 38.463 Q 215.125 40.349 213.126 42.656 Q 208.087 48.516 201.251 54.063 A 59.475 59.475 0 0 1 195.177 58.368 Q 188.059 62.723 182.044 62.956 A 17.476 17.476 0 0 1 181.368 62.969 A 11.961 11.961 0 0 1 172.232 58.93 A 16.604 16.604 0 0 1 171.056 57.5 A 20.097 20.097 0 0 1 167.954 50.94 Q 167.179 48.156 166.961 44.853 A 40.513 40.513 0 0 1 166.876 42.188 A 31.138 31.138 0 0 1 168.907 31.498 Q 170.53 27.05 173.45 22.323 A 79.292 79.292 0 0 1 179.181 14.297 A 78.565 78.565 0 0 1 183.976 8.828 Q 189.154 3.484 193.907 1.094 A 17.785 17.785 0 0 1 194.919 0.615 Q 195.927 0.18 196.655 0.053 A 3.228 3.228 0 0 1 197.208 0 A 6.238 6.238 0 0 1 198.507 0.131 A 5.264 5.264 0 0 1 199.317 0.371 A 6.61 6.61 0 0 1 201.095 1.406 A 5.768 5.768 0 0 1 202.298 2.759 A 4.64 4.64 0 0 1 203.009 5.274 A 10.29 10.29 0 0 1 202.818 7.172 Q 202.641 8.11 202.301 9.158 A 23.029 23.029 0 0 1 201.759 10.645 A 29.745 29.745 0 0 1 200.282 13.749 Q 199.47 15.24 198.428 16.814 A 49.857 49.857 0 0 1 198.126 17.266 A 56.687 56.687 0 0 1 191.769 25.017 A 76.719 76.719 0 0 1 184.493 31.563 Q 182.266 35.82 182.266 41.797 A 8.352 8.352 0 0 0 183.582 46.274 A 10.453 10.453 0 0 0 183.985 46.875 Q 185.089 48.371 186.332 48.928 A 3.682 3.682 0 0 0 187.852 49.258 A 5.225 5.225 0 0 0 189.465 48.94 Q 192.048 48.074 196.718 44.842 A 101.45 101.45 0 0 0 198.907 43.281 Z M 505.86 25.547 L 506.407 26.406 A 3.953 3.953 0 0 0 506.7 26.81 Q 507.179 27.383 507.657 27.383 Q 508.282 27.383 509.61 27.266 L 515.157 26.875 Q 516.446 26.758 517.188 26.758 A 2.556 2.556 0 0 1 517.827 26.845 Q 518.119 26.92 518.438 27.062 A 5.751 5.751 0 0 1 518.888 27.285 Q 519.845 27.813 520.587 28.672 A 7.177 7.177 0 0 1 521.804 30.689 A 6.242 6.242 0 0 1 522.227 32.969 A 3.575 3.575 0 0 1 521.893 34.353 Q 520.889 36.69 516.876 40.586 L 514.298 43.164 Q 511.67 45.865 511.532 46.674 A 0.5 0.5 0 0 0 511.524 46.758 A 1.503 1.503 0 0 0 511.886 47.732 A 2.316 2.316 0 0 0 512.227 48.066 A 2.64 2.64 0 0 0 512.936 48.482 A 2.252 2.252 0 0 0 513.751 48.633 Q 514.427 48.633 515.249 48.328 A 7.14 7.14 0 0 0 515.606 48.184 Q 516.302 47.882 517.218 47.386 A 40.125 40.125 0 0 0 518.165 46.856 A 70.838 70.838 0 0 0 519.58 46.015 Q 520.302 45.576 521.101 45.071 A 126.195 126.195 0 0 0 521.641 44.727 A 522.524 522.524 0 0 0 523.955 43.199 Q 526.603 41.439 528.031 40.43 A 44.643 44.643 0 0 0 528.79 39.883 L 532.032 37.578 A 31.856 31.856 0 0 1 533.393 36.665 Q 535.66 35.234 536.759 35.234 A 5.359 5.359 0 0 1 537.742 35.32 Q 538.312 35.426 538.77 35.665 A 3.058 3.058 0 0 1 539.063 35.84 A 1.901 1.901 0 0 1 539.812 36.864 Q 539.922 37.202 539.951 37.618 A 4.455 4.455 0 0 1 539.962 37.93 A 4.016 4.016 0 0 1 539.82 38.929 Q 539.57 39.896 538.876 41.16 A 19.385 19.385 0 0 1 538.438 41.914 A 26.779 26.779 0 0 1 536.54 44.649 A 21.847 21.847 0 0 1 535.138 46.25 A 97.619 97.619 0 0 1 532.74 48.645 A 82.954 82.954 0 0 1 531.681 49.649 A 55.813 55.813 0 0 1 529.973 51.169 Q 528.93 52.062 527.716 53.027 Q 525.431 54.844 522.657 56.699 Q 519.884 58.555 516.798 60.039 A 39.124 39.124 0 0 1 511.508 62.176 Q 508.639 63.083 505.988 63.338 A 21.312 21.312 0 0 1 503.946 63.438 Q 495.391 63.438 493.516 59.024 Q 492.931 57.695 492.931 56.055 A 9.916 9.916 0 0 1 493.117 54.184 A 13.375 13.375 0 0 1 493.556 52.52 A 22.836 22.836 0 0 1 494.948 49.219 A 25.402 25.402 0 0 1 495.196 48.75 A 30.313 30.313 0 0 1 499.403 42.822 A 28.101 28.101 0 0 1 500.001 42.188 Q 502.345 39.727 502.345 39.258 Q 502.345 38.516 501.505 38.32 A 5.632 5.632 0 0 0 500.969 38.226 Q 500.203 38.125 499.024 38.125 Q 498.33 38.125 496.076 40.104 A 39.981 39.981 0 0 0 496.016 40.156 L 492.188 43.672 A 84.226 84.226 0 0 1 490.051 45.557 Q 485.799 49.171 484.26 49.218 A 1.314 1.314 0 0 1 484.22 49.219 A 3.261 3.261 0 0 1 482.936 48.95 A 3.857 3.857 0 0 1 482.755 48.867 A 3.426 3.426 0 0 1 482.014 48.372 Q 481.7 48.101 481.407 47.734 Q 480.219 46.24 480.063 43.802 A 11.875 11.875 0 0 1 480.04 43.047 Q 480.04 40.317 482.86 36.425 A 32.758 32.758 0 0 1 483.829 35.156 A 39.142 39.142 0 0 1 492.384 27.266 A 30.44 30.44 0 0 1 495.211 25.528 Q 498.673 23.672 501.368 23.672 Q 504.688 23.672 505.86 25.547 Z M 160.313 42.344 L 167.462 36.758 Q 170.835 34.313 173.204 33.805 A 5.601 5.601 0 0 1 174.376 33.672 A 2.329 2.329 0 0 1 175.071 33.77 A 1.796 1.796 0 0 1 175.997 34.434 A 2.87 2.87 0 0 1 176.561 36.085 A 3.56 3.56 0 0 1 176.563 36.211 A 2.863 2.863 0 0 1 176.474 36.881 Q 176.262 37.754 175.548 39.004 Q 174.532 40.781 172.755 42.93 A 52.392 52.392 0 0 1 170.826 45.127 A 68.756 68.756 0 0 1 168.595 47.422 A 74.12 74.12 0 0 1 164.126 51.464 A 82.286 82.286 0 0 1 163.438 52.031 A 86.2 86.2 0 0 1 157.677 56.348 Q 154.688 58.399 151.72 59.941 Q 148.751 61.484 145.938 62.402 Q 143.126 63.32 140.411 63.32 Q 137.696 63.32 134.786 62.012 A 18.046 18.046 0 0 1 129.61 58.516 A 18.558 18.558 0 0 1 126.54 54.7 A 13.55 13.55 0 0 1 124.571 47.656 A 20.182 20.182 0 0 1 125.918 40.535 A 26.996 26.996 0 0 1 127.852 36.484 Q 130.86 31.367 135.509 27.891 A 22.854 22.854 0 0 1 138.349 26.057 Q 139.947 25.197 141.459 24.787 A 10.23 10.23 0 0 1 144.141 24.414 A 15.32 15.32 0 0 1 146.167 24.536 Q 148.401 24.836 149.417 25.871 A 2.923 2.923 0 0 1 150.235 27.617 A 15.268 15.268 0 0 1 150.315 28.532 Q 150.352 29.158 150.352 29.883 A 6.679 6.679 0 0 1 150.239 31.071 Q 150.136 31.635 149.942 32.256 A 13.001 13.001 0 0 1 149.747 32.832 Q 149.141 34.492 148.184 36.152 Q 147.227 37.813 146.075 39.395 A 72.993 72.993 0 0 1 144.947 40.903 A 57.312 57.312 0 0 1 143.868 42.266 A 70.708 70.708 0 0 1 142.904 43.411 Q 141.868 44.612 141.097 45.374 A 14.65 14.65 0 0 1 140.626 45.82 Q 140.626 47.005 142.212 48.252 A 9.796 9.796 0 0 0 142.618 48.555 A 11.09 11.09 0 0 0 143.621 49.193 Q 144.686 49.787 145.533 49.87 A 2.762 2.762 0 0 0 145.802 49.883 Q 146.815 49.883 148.109 49.508 A 14.53 14.53 0 0 0 148.888 49.258 A 22.033 22.033 0 0 0 151.155 48.309 A 27.242 27.242 0 0 0 152.559 47.578 A 44.644 44.644 0 0 0 155.323 45.901 A 51.992 51.992 0 0 0 156.427 45.156 Q 158.399 43.789 160.313 42.344 Z M 159.102 18.496 A 10.633 10.633 0 0 0 161.563 16.934 Q 162.696 15.977 163.595 14.766 Q 164.493 13.555 165.118 12.344 A 15.208 15.208 0 0 0 165.548 11.442 A 12.235 12.235 0 0 0 166.075 10 A 7.879 7.879 0 0 0 166.313 8.882 A 10.048 10.048 0 0 0 166.407 7.481 A 3.273 3.273 0 0 0 166.383 7.084 Q 166.299 6.393 165.92 5.717 A 5.531 5.531 0 0 0 165.235 4.766 A 3.916 3.916 0 0 0 164.653 4.229 A 4.733 4.733 0 0 0 163.731 3.691 A 3.045 3.045 0 0 0 163.498 3.599 Q 162.593 3.281 160.977 3.281 Q 159.141 3.281 156.29 4.141 A 29.958 29.958 0 0 0 155.46 4.396 Q 147.852 6.856 147.852 11.641 A 8.402 8.402 0 0 0 147.867 12.146 A 6.733 6.733 0 0 0 150.313 17.031 A 7.78 7.78 0 0 0 150.981 17.547 A 8.623 8.623 0 0 0 152.97 18.555 Q 154.493 19.102 156.134 19.102 Q 157.774 19.102 159.102 18.496 Z" vector-effect="non-scaling-stroke"/></g></svg>